<svg width="20" height="26" viewBox="0 0 20 26" fill="none" xmlns="http://www.w3.org/2000/svg">
<path d="M10.0002 0C4.80807 0 0.583984 4.22409 0.583984 9.41616C0.583984 15.8597 9.01057 25.3192 9.36934 25.7187C9.70633 26.094 10.2947 26.0934 10.6311 25.7187C10.9898 25.3192 19.4164 15.8597 19.4164 9.41616C19.4163 4.22409 15.1923 0 10.0002 0ZM10.0002 14.1537C7.38791 14.1537 5.26271 12.0285 5.26271 9.41616C5.26271 6.80387 7.38796 4.67868 10.0002 4.67868C12.6124 4.67868 14.7376 6.80393 14.7376 9.41621C14.7376 12.0285 12.6124 14.1537 10.0002 14.1537Z" fill="#0FA85F"/>
</svg>
