<svg width="23" height="23" viewBox="0 0 23 23" fill="none" xmlns="http://www.w3.org/2000/svg">
<g clip-path="url(#clip0_24_1478)">
<path d="M13.4222 14.0917C12.8499 14.4732 12.1853 14.6748 11.5 14.6748C10.8148 14.6748 10.1501 14.4732 9.57788 14.0917L0.153139 7.80833C0.10085 7.77347 0.0499082 7.73713 0 7.69975V17.9957C0 19.1762 0.957959 20.113 2.1173 20.113H20.8827C22.0631 20.113 23 19.1551 23 17.9957V7.69971C22.95 7.73717 22.8989 7.7736 22.8465 7.80851L13.4222 14.0917Z" fill="white"/>
<path d="M0.900684 6.68699L10.3254 12.9704C10.6822 13.2083 11.0911 13.3272 11.5 13.3272C11.9089 13.3272 12.3178 13.2082 12.6746 12.9704L22.0993 6.68699C22.6633 6.31122 23 5.68232 23 5.00355C23 3.83643 22.0505 2.88696 20.8834 2.88696H2.11658C0.949514 2.88701 0 3.83648 0 5.00467C0 5.68232 0.336734 6.31122 0.900684 6.68699Z" fill="white"/>
</g>
<defs>
<clipPath id="clip0_24_1478">
<rect width="23" height="23" fill="white"/>
</clipPath>
</defs>
</svg>
