<svg width="32" height="32" viewBox="0 0 32 32" fill="none" xmlns="http://www.w3.org/2000/svg">
<g clip-path="url(#clip0_84_732)">
<path fill-rule="evenodd" clip-rule="evenodd" d="M16 30.4C23.9529 30.4 30.4 23.9531 30.4 16C30.4 8.04711 23.9531 1.59997 16 1.59997C8.04711 1.59997 1.59997 8.04711 1.59997 16C1.59997 23.9529 8.04711 30.4 16 30.4ZM16 32C24.8365 32 32 24.8365 32 16C32 7.16338 24.8365 0 16 0C7.16338 0 0 7.16338 0 16C0 24.8365 7.16338 32 16 32Z" fill="white"/>
<path fill-rule="evenodd" clip-rule="evenodd" d="M20.158 16L12.8003 11.0949V20.9053L20.158 16ZM21.6445 15.0682C22.3096 15.5116 22.3096 16.4887 21.6445 16.932L12.9415 22.7342C12.1972 23.2304 11.2002 22.6967 11.2002 21.8022V10.198C11.2002 9.30349 12.1972 8.76995 12.9415 9.26618L21.6445 15.0682Z" fill="white"/>
</g>
<defs>
<clipPath id="clip0_84_732">
<rect width="32" height="32" fill="white"/>
</clipPath>
</defs>
</svg>
