<svg width="22" height="22" viewBox="0 0 22 22" fill="none" xmlns="http://www.w3.org/2000/svg">
<path d="M18.7782 3.22184C16.7005 1.14417 13.9382 0 11 0C8.0618 0 5.29942 1.14417 3.22184 3.2218C1.14417 5.29942 0 8.0618 0 11C0 13.9382 1.14417 16.7005 3.22184 18.7782C5.29942 20.8558 8.0618 22 11 22C13.9382 22 16.7005 20.8558 18.7782 18.7781C20.8558 16.7005 22 13.9382 22 11C22 8.06175 20.8558 5.29942 18.7782 3.22184ZM4.13428 4.13428C5.10155 3.16701 6.23709 2.42924 7.47476 1.94769C7.1451 2.35924 6.83663 2.83228 6.55394 3.36432C6.22561 3.98221 5.94232 4.66082 5.70638 5.38566C4.88903 5.25001 4.1317 5.0832 3.45512 4.88744C3.66717 4.62679 3.8934 4.37516 4.13428 4.13428ZM2.6739 5.99779C3.46526 6.25118 4.37027 6.46486 5.35777 6.63412C5.08277 7.80141 4.92091 9.05751 4.88228 10.3548H1.31209C1.4135 8.79794 1.88109 7.31208 2.6739 5.99779ZM2.60365 15.8829C1.85363 14.5982 1.41045 13.1552 1.31205 11.6452H4.88473C4.92693 12.9054 5.08557 14.1258 5.35128 15.2625C4.3435 15.4259 3.41576 15.6342 2.60365 15.8829ZM4.13428 17.8657C3.86014 17.5915 3.60482 17.3036 3.36811 17.004C4.06948 16.8095 4.85358 16.6448 5.69761 16.5127C5.93523 17.2476 6.22157 17.9352 6.55389 18.5607C6.86198 19.1405 7.2007 19.6499 7.56409 20.0863C6.29179 19.6058 5.1248 18.8561 4.13428 17.8657ZM10.3548 20.544C9.37475 20.2695 8.44766 19.3745 7.69347 17.9552C7.42968 17.4588 7.198 16.9173 6.99952 16.3401C8.06214 16.2232 9.19286 16.154 10.3548 16.1378V20.544ZM10.3548 14.8473C9.06623 14.8649 7.8103 14.9458 6.63412 15.0839C6.37467 14.0114 6.21857 12.8505 6.17573 11.6452H10.3548V14.8473H10.3548ZM10.3548 10.3548H6.17328C6.21242 9.11582 6.37102 7.92254 6.63854 6.82271C7.80721 6.9688 9.06052 7.05766 10.3548 7.0831V10.3548ZM10.3548 5.79253C9.18835 5.76903 8.06012 5.69297 7.00502 5.56888C7.20229 4.99774 7.43218 4.46166 7.69347 3.9698C8.44761 2.55045 9.37475 1.6555 10.3548 1.38097V5.79253ZM19.3667 6.06633C20.1348 7.36368 20.5882 8.82488 20.688 10.3548H17.1178C17.0796 9.07242 16.9208 7.83041 16.6516 6.67464C17.6456 6.51411 18.5618 6.30987 19.3667 6.06633ZM17.8657 4.13428C18.1247 4.39334 18.3667 4.6649 18.5924 4.94682C17.9018 5.13541 17.1327 5.29547 16.3063 5.42429C16.0679 4.68488 15.7803 3.99321 15.4461 3.36432C15.1634 2.83228 14.8549 2.35924 14.5253 1.94769C15.7629 2.42924 16.8984 3.16701 17.8657 4.13428ZM11.6452 11.6452H15.8243C15.7812 12.8599 15.623 14.0296 15.3598 15.109C14.1913 14.9637 12.9386 14.8757 11.6452 14.8509V11.6452ZM11.6452 10.3548V7.08739C12.9345 7.07046 14.1914 6.99024 15.3687 6.85261C15.6319 7.94415 15.7879 9.12704 15.8267 10.3548H11.6452ZM11.6451 1.38097H11.6452C12.6252 1.6555 13.5523 2.55045 14.3065 3.9698C14.5719 4.46939 14.805 5.01471 15.0043 5.59608C13.9403 5.71261 12.8083 5.78123 11.6451 5.79691V1.38097ZM11.6452 20.544V16.1415C12.8105 16.1644 13.9379 16.2397 14.9926 16.3631C14.7959 16.9316 14.5667 17.4654 14.3065 17.9552C13.5523 19.3745 12.6252 20.2695 11.6452 20.544ZM17.8657 17.8657C16.8752 18.8562 15.7082 19.6058 14.4359 20.0863C14.7993 19.6499 15.138 19.1405 15.4461 18.5607C15.7735 17.9445 16.0561 17.2679 16.2917 16.5452C17.1281 16.6833 17.9019 16.854 18.5912 17.0548C18.3659 17.336 18.1243 17.6071 17.8657 17.8657ZM19.362 15.9418C18.5613 15.6844 17.6432 15.4678 16.6409 15.2968C16.9115 14.1504 17.0727 12.9181 17.1154 11.6452H20.688C20.588 13.1783 20.133 14.6424 19.362 15.9418Z" fill="#0FA85F"/>
</svg>
