<svg width="22" height="22" viewBox="0 0 22 22" fill="none" xmlns="http://www.w3.org/2000/svg">
<g clip-path="url(#clip0_377_1130)">
<path d="M20.7109 5.19922V3.91016H12.8227C12.6282 3.3617 12.193 2.92647 11.6445 2.73195V0H10.3555V2.73195C9.80702 2.92647 9.37179 3.3617 9.17727 3.91016H1.28906V5.19922H2.90039L0 12.1602V12.2891C0 14.066 1.44568 15.5117 3.22266 15.5117H4.51172C6.28869 15.5117 7.73438 14.066 7.73438 12.2891V12.1602L4.83398 5.19922H9.17727C9.37179 5.74767 9.80702 6.1829 10.3555 6.37742V15.6196C9.07642 15.8803 8.07129 16.9012 7.83234 18.1879C6.33609 18.4657 5.19922 19.7799 5.19922 21.3555V22H16.8008V21.3555C16.8008 19.7799 15.664 18.4657 14.1677 18.1878C13.9287 16.9011 12.9236 15.8802 11.6445 15.6195V6.37742C12.193 6.1829 12.6282 5.74767 12.8227 5.19922H17.166L14.2656 12.1602V12.2891C14.2656 14.066 15.7113 15.5117 17.4883 15.5117H18.7773C20.5543 15.5117 22 14.066 22 12.2891V12.1602L19.0996 5.19922H20.7109ZM3.86719 6.23047L6.12305 11.6445H1.61133L3.86719 6.23047ZM4.51172 14.2227H3.22266C2.38245 14.2227 1.66598 13.6837 1.39992 12.9332H6.33445C6.06839 13.6837 5.35193 14.2227 4.51172 14.2227ZM18.1328 6.23047L20.3887 11.6445H15.877L18.1328 6.23047ZM18.7773 14.2227H17.4883C16.6481 14.2227 15.9316 13.6837 15.6655 12.9332H20.6001C20.334 13.6837 19.6176 14.2227 18.7773 14.2227ZM15.4013 20.7109H6.59871C6.86473 19.9607 7.58158 19.4219 8.42188 19.4219H13.5782C14.4185 19.4219 15.1353 19.9607 15.4013 20.7109ZM12.8227 18.1328H9.17727C9.44333 17.3826 10.1598 16.8438 11 16.8438C11.8403 16.8438 12.5567 17.3826 12.8227 18.1328ZM11 5.19922C10.6446 5.19922 10.3555 4.91008 10.3555 4.55469C10.3555 4.19929 10.6446 3.91016 11 3.91016C11.3554 3.91016 11.6445 4.19929 11.6445 4.55469C11.6445 4.91008 11.3554 5.19922 11 5.19922Z" fill="#2BB272"/>
</g>
<defs>
<clipPath id="clip0_377_1130">
<rect width="22" height="22" fill="white"/>
</clipPath>
</defs>
</svg>
