<svg width="17" height="23" viewBox="0 0 17 23" fill="none" xmlns="http://www.w3.org/2000/svg">
<path d="M7.93933 22.6999C8.0643 22.8874 8.27472 23 8.5 23C8.72528 23 8.9357 22.8874 9.06067 22.6999C10.6554 20.308 13.0042 17.3539 14.641 14.3494C15.9497 11.9472 16.5859 9.89836 16.5859 8.08594C16.5859 3.62735 12.9586 0 8.5 0C4.04141 0 0.414062 3.62735 0.414062 8.08594C0.414062 9.89836 1.05029 11.9472 2.35904 14.3494C3.99461 17.3516 6.34793 20.3129 7.93933 22.6999ZM8.5 1.34766C12.2155 1.34766 15.2383 4.37045 15.2383 8.08594C15.2383 9.66737 14.6558 11.5053 13.4575 13.7047C12.0467 16.2944 10.0334 18.9214 8.5 21.1299C6.96686 18.9217 4.95342 16.2946 3.54247 13.7047C2.34422 11.5053 1.76172 9.66737 1.76172 8.08594C1.76172 4.37045 4.78451 1.34766 8.5 1.34766Z" fill="#0FA85F"/>
<path d="M8.5 12.1289C10.7293 12.1289 12.543 10.3152 12.543 8.08594C12.543 5.85664 10.7293 4.04297 8.5 4.04297C6.27071 4.04297 4.45703 5.85664 4.45703 8.08594C4.45703 10.3152 6.27071 12.1289 8.5 12.1289ZM8.5 5.39062C9.9862 5.39062 11.1953 6.59974 11.1953 8.08594C11.1953 9.57213 9.9862 10.7812 8.5 10.7812C7.0138 10.7812 5.80469 9.57213 5.80469 8.08594C5.80469 6.59974 7.0138 5.39062 8.5 5.39062Z" fill="#0FA85F"/>
</svg>
