<svg width="13" height="17" viewBox="0 0 13 17" fill="none" xmlns="http://www.w3.org/2000/svg">
<path d="M6.37856 16.7782C6.47093 16.9168 6.62646 17 6.79297 17C6.95948 17 7.11501 16.9168 7.20738 16.7782C8.38605 15.0102 10.1221 12.8268 11.3319 10.6061C12.2993 8.83054 12.7695 7.31618 12.7695 5.97656C12.7695 2.68109 10.0884 0 6.79297 0C3.49749 0 0.816406 2.68109 0.816406 5.97656C0.816406 7.31618 1.28666 8.83054 2.254 10.6061C3.46289 12.8251 5.20231 15.0139 6.37856 16.7782ZM6.79297 0.996094C9.5392 0.996094 11.7734 3.23033 11.7734 5.97656C11.7734 7.14545 11.3429 8.50392 10.4572 10.1296C9.41442 12.0437 7.92632 13.9854 6.79297 15.6177C5.65978 13.9856 4.17158 12.0438 3.12871 10.1296C2.24305 8.50392 1.8125 7.14545 1.8125 5.97656C1.8125 3.23033 4.04674 0.996094 6.79297 0.996094Z" fill="#0FA85F"/>
<path d="M6.79297 8.96484C8.44071 8.96484 9.78125 7.6243 9.78125 5.97656C9.78125 4.32882 8.44071 2.98828 6.79297 2.98828C5.14523 2.98828 3.80469 4.32882 3.80469 5.97656C3.80469 7.6243 5.14523 8.96484 6.79297 8.96484ZM6.79297 3.98438C7.89146 3.98438 8.78516 4.87807 8.78516 5.97656C8.78516 7.07505 7.89146 7.96875 6.79297 7.96875C5.69448 7.96875 4.80078 7.07505 4.80078 5.97656C4.80078 4.87807 5.69448 3.98438 6.79297 3.98438Z" fill="#0FA85F"/>
</svg>
