<svg width="25" height="25" viewBox="0 0 25 25" fill="none" xmlns="http://www.w3.org/2000/svg">
<path d="M12.9059 0.237671H12.8999C6.22976 0.237671 0.805664 5.66328 0.805664 12.3349C0.805664 14.9812 1.65852 17.4339 3.10867 19.4254L1.60106 23.9195L6.25093 22.4331C8.1638 23.7002 10.4456 24.4321 12.9059 24.4321C19.576 24.4321 25.0001 19.005 25.0001 12.3349C25.0001 5.66479 19.576 0.237671 12.9059 0.237671Z" fill="#50BC3F"/>
<path d="M19.9446 17.3205C19.6528 18.1446 18.4945 18.8281 17.5705 19.0277C16.9384 19.1623 16.1128 19.2697 13.3335 18.1174C9.7784 16.6446 7.489 13.0321 7.31057 12.7977C7.1397 12.5633 5.87402 10.8848 5.87402 9.14884C5.87402 7.41289 6.75561 6.5676 7.11096 6.20468C7.40281 5.90678 7.88519 5.77069 8.34791 5.77069C8.49761 5.77069 8.63219 5.77825 8.75316 5.7843C9.10852 5.79942 9.28695 5.82059 9.52134 6.3816C9.81318 7.08475 10.5239 8.8207 10.6086 8.99914C10.6948 9.17757 10.781 9.41952 10.66 9.6539C10.5466 9.89585 10.4468 10.0032 10.2683 10.2089C10.0899 10.4145 9.92054 10.5718 9.74211 10.7926C9.5788 10.9846 9.39432 11.1902 9.59997 11.5456C9.80562 11.8934 10.5163 13.0532 11.5627 13.9847C12.9131 15.1869 14.0079 15.571 14.3995 15.7343C14.6914 15.8552 15.0392 15.8265 15.2524 15.5997C15.5231 15.3078 15.8573 14.824 16.1975 14.3476C16.4394 14.0059 16.7449 13.9635 17.0655 14.0845C17.3921 14.1979 19.1205 15.0523 19.4758 15.2292C19.8312 15.4076 20.0656 15.4923 20.1518 15.642C20.2365 15.7917 20.2365 16.4949 19.9446 17.3205Z" fill="#FAFAFA"/>
</svg>
