<svg width="15" height="25" viewBox="0 0 15 25" fill="none" xmlns="http://www.w3.org/2000/svg">
<path d="M0.221008 13.8055C-0.392079 15.0186 0.30402 15.5985 1.89225 16.5892C3.24244 17.4289 5.1077 17.736 6.30587 17.8588C5.8148 18.334 8.06513 16.1553 1.5842 22.4306C0.210006 23.7565 2.42232 25.8839 3.79552 24.5861L7.51305 20.9768C8.93625 22.3551 10.3004 23.676 11.2306 24.5912C12.6048 25.8939 14.8161 23.7847 13.4569 22.4356C13.3549 22.338 8.41918 17.5718 8.72022 17.8638C9.93339 17.741 11.7707 17.4158 13.1048 16.5943L13.1038 16.5933C14.6921 15.5975 15.3882 15.0186 14.7841 13.8055C14.419 13.1168 13.4349 12.5409 12.1247 13.5366C12.1247 13.5366 10.3555 14.9008 7.50205 14.9008C4.64764 14.9008 2.87939 13.5366 2.87939 13.5366C1.5702 12.5359 0.582059 13.1168 0.221008 13.8055Z" fill="#BBBBBB"/>
<path d="M7.00055 13C10.8537 13 14 10.0899 14 6.50749C14 2.91006 10.8537 0 7.00055 0C3.14632 0 0 2.91006 0 6.50749C0 10.0899 3.14632 13 7.00055 13ZM7.00055 3.29657C8.89388 3.29657 10.4382 4.73233 10.4382 6.50749C10.4382 8.26767 8.89388 9.70343 7.00055 9.70343C5.10722 9.70343 3.56287 8.26767 3.56287 6.50749C3.56176 4.73126 5.10612 3.29657 7.00055 3.29657Z" fill="#BBBBBB"/>
</svg>
