<svg width="30" height="18" viewBox="0 0 30 18" fill="none" xmlns="http://www.w3.org/2000/svg">
<path d="M24.3543 9.94029C23.8826 9.34462 24.0175 9.07961 24.3543 8.54715C24.3603 8.54107 28.2541 3.16059 28.6552 1.3359L28.6577 1.33468C28.857 0.669723 28.6577 0.18103 27.6937 0.18103H24.5038C23.6917 0.18103 23.3173 0.60043 23.1167 1.06967C23.1167 1.06967 21.4926 4.95733 19.195 7.47738C18.4535 8.20555 18.1107 8.43896 17.7058 8.43896C17.5065 8.43896 17.1965 8.20555 17.1965 7.54059V1.33468C17.1965 0.537216 16.9692 0.18103 16.2969 0.18103H11.2811C10.7718 0.18103 10.4691 0.55302 10.4691 0.899481C10.4691 1.65562 11.6179 1.82946 11.737 3.95685V8.57268C11.737 9.5841 11.5534 9.7701 11.1462 9.7701C10.0618 9.7701 7.42994 5.86664 5.87025 1.39911C5.5554 0.532354 5.24784 0.182246 4.42971 0.182246H1.23862C0.328095 0.182246 0.144531 0.601646 0.144531 1.07089C0.144531 1.89996 1.22889 6.02224 5.18706 11.4684C7.82502 15.1858 11.5401 17.2002 14.9196 17.2002C16.9509 17.2002 17.1989 16.7528 17.1989 15.9833C17.1989 12.4312 17.0154 12.0956 18.0329 12.0956C18.5045 12.0956 19.3166 12.329 21.213 14.1221C23.3805 16.2483 23.7367 17.2002 24.9499 17.2002H28.1398C29.0491 17.2002 29.5098 16.7528 29.2448 15.8702C28.6382 14.0139 24.539 10.1956 24.3543 9.94029Z" fill="#BBBBBB"/>
</svg>
