<svg width="26" height="26" viewBox="0 0 26 26" fill="none" xmlns="http://www.w3.org/2000/svg">
<g clip-path="url(#clip0_229_3991)">
<path d="M24.0974 6.22767V4.75446H15.0823C14.86 4.12765 14.3626 3.63025 13.7358 3.40794V0.285706H12.2626V3.40794C11.6358 3.63025 11.1383 4.12765 10.916 4.75446H1.90095V6.22767H3.74247L0.427734 14.183V14.3303C0.427734 16.3612 2.07994 18.0134 4.11077 18.0134H5.58398C7.61481 18.0134 9.26702 16.3612 9.26702 14.3303V14.183L5.95229 6.22767H10.916C11.1383 6.85447 11.6358 7.35188 12.2626 7.57419V18.1366C10.8008 18.4346 9.65207 19.6013 9.37898 21.0718C7.66898 21.3894 6.3697 22.8913 6.3697 24.692V25.4286H19.6287V24.692C19.6287 22.8913 18.3294 21.3894 16.6194 21.0718C16.3463 19.6012 15.1975 18.4345 13.7358 18.1366V7.57419C14.3626 7.35188 14.86 6.85447 15.0823 6.22767H20.046L16.7313 14.183V14.3303C16.7313 16.3612 18.3835 18.0134 20.4143 18.0134H21.8876C23.9184 18.0134 25.5706 16.3612 25.5706 14.3303V14.183L22.2559 6.22767H24.0974ZM4.84738 7.40624L7.4255 13.5937H2.26925L4.84738 7.40624ZM5.58398 16.5402H4.11077C3.15053 16.5402 2.33172 15.9243 2.02765 15.0665H7.66711C7.36304 15.9243 6.54423 16.5402 5.58398 16.5402ZM21.1509 7.40624L23.7291 13.5937H18.5728L21.1509 7.40624ZM21.8876 16.5402H20.4143C19.4541 16.5402 18.6353 15.9243 18.3312 15.0665H23.9707C23.6666 15.9243 22.8478 16.5402 21.8876 16.5402ZM18.0292 23.9553H7.96912C8.27314 23.0979 9.09239 22.4821 10.0527 22.4821H15.9456C16.906 22.4821 17.7252 23.0979 18.0292 23.9553ZM15.0823 21.0089H10.916C11.2201 20.1516 12.0389 19.5357 12.9992 19.5357C13.9595 19.5357 14.7782 20.1516 15.0823 21.0089ZM12.9992 6.22767C12.593 6.22767 12.2626 5.89723 12.2626 5.49106C12.2626 5.0849 12.593 4.75446 12.9992 4.75446C13.4053 4.75446 13.7358 5.0849 13.7358 5.49106C13.7358 5.89723 13.4053 6.22767 12.9992 6.22767Z" fill="#2BB272"/>
</g>
<defs>
<clipPath id="clip0_229_3991">
<rect width="25.1429" height="25.1429" fill="white" transform="translate(0.427734 0.285706)"/>
</clipPath>
</defs>
</svg>
